<svg width="10" height="10" viewBox="0 0 10 10" fill="none" xmlns="http://www.w3.org/2000/svg">
<path d="M4.98627 0.392395C1.61412 0.392395 0.489746 1.51677 0.489746 4.88892C0.489746 8.26108 1.61412 9.38545 4.98627 9.38545C8.35843 9.38545 9.4828 8.26108 9.4828 4.88892" stroke="#130F26" stroke-width="0.5" stroke-linecap="round" stroke-linejoin="round"/>
<path fill-rule="evenodd" clip-rule="evenodd" d="M8.64587 1.14765V1.14765C8.16316 0.720358 7.42573 0.76508 6.99844 1.24779C6.99844 1.24779 4.87462 3.64675 4.13816 4.47945C3.40073 5.31168 3.94129 6.46133 3.94129 6.46133C3.94129 6.46133 5.15851 6.84682 5.88476 6.02626C6.6115 5.2057 8.74601 2.79508 8.74601 2.79508C9.1733 2.31237 9.12809 1.57494 8.64587 1.14765Z" stroke="#130F26" stroke-width="0.5" stroke-linecap="round" stroke-linejoin="round"/>
<path d="M6.44897 1.87537L8.19654 3.42266" stroke="#130F26" stroke-width="0.5" stroke-linecap="round" stroke-linejoin="round"/>
</svg>
